<svg width="1024" height="1024" viewBox="0 0 1024 1024" fill="none" xmlns="http://www.w3.org/2000/svg">
<g clip-path="url(#clip0_6_282)">
<rect width="1024" height="1024" fill="#1E1E1E"/>
<rect width="1024" height="1024" fill="url(#paint0_linear_6_282)" fill-opacity="0.1"/>
<mask id="mask0_6_282" style="mask-type:alpha" maskUnits="userSpaceOnUse" x="0" y="603" width="1024" height="421">
<rect y="603" width="1024" height="421" fill="#D9D9D9"/>
</mask>
<g mask="url(#mask0_6_282)">
<rect x="-301.246" y="312.114" width="1705.52" height="19" transform="rotate(15 -301.246 312.114)" fill="#24432A"/>
<rect x="-179.801" y="127.003" width="1627.09" height="19" transform="rotate(30 -179.801 127.003)" fill="#24432A"/>
<rect x="-107.578" y="-99.0112" width="1794.06" height="19" transform="rotate(45 -107.578 -99.0112)" fill="#24432A"/>
<rect x="119.613" y="-170.483" width="1634.44" height="19" transform="rotate(60 119.613 -170.483)" fill="#24432A"/>
<rect x="895.119" y="-88.7351" width="1467.59" height="19" transform="rotate(120 895.119 -88.7351)" fill="#24432A"/>
<rect x="1088.39" y="-12.9626" width="1588.66" height="19" transform="rotate(135 1088.39 -12.9626)" fill="#24432A"/>
<rect x="1090.43" y="223.625" width="1306.4" height="19" transform="rotate(150 1090.43 223.625)" fill="#24432A"/>
<rect x="1137.41" y="386.395" width="1273.3" height="19" transform="rotate(165 1137.41 386.395)" fill="#24432A"/>
</g>
<rect x="1024" y="621.993" width="1024" height="19" transform="rotate(-180 1024 621.993)" fill="#24432A"/>
<mask id="mask1_6_282" style="mask-type:alpha" maskUnits="userSpaceOnUse" x="0" y="0" width="1024" height="1024">
<path fill-rule="evenodd" clip-rule="evenodd" d="M1024 0H0V1024H255L479.5 603.5H562.5L796 1024H1024V0Z" fill="#D9D9D9"/>
</mask>
<g mask="url(#mask1_6_282)">
<rect x="1024" y="701.993" width="1024" height="19" transform="rotate(-180 1024 701.993)" fill="#24432A"/>
<rect x="1024" y="811.993" width="1024" height="19" transform="rotate(-180 1024 811.993)" fill="#24432A"/>
<rect x="1024" y="981.993" width="1024" height="19" transform="rotate(-180 1024 981.993)" fill="#24432A"/>
</g>
<path d="M338.98 448.14H444.244V534.432H490.144V626.844H444.244V696H338.98V626.844H109.48V443.856C215.968 431.616 278.392 369.804 284.512 264.54H390.388C384.88 410.808 297.364 503.832 148.036 534.432H338.98V448.14ZM530.756 459.156C530.756 315.336 621.944 255.972 737.612 255.972C844.712 255.972 917.54 306.768 917.54 405.3C917.54 539.328 768.212 568.704 579.716 598.08H917.54V696H536.876V509.34C681.308 498.936 806.768 472.008 806.768 402.852C806.768 380.208 793.304 353.28 735.776 353.28C667.844 353.28 642.14 388.164 642.14 459.156H530.756Z" fill="#42FD72"/>
<path d="M511.132 833.136C484.124 833.136 468.124 814.064 468.124 791.28C468.124 769.136 484.124 750.448 511.132 750.448C537.372 750.448 554.908 769.136 554.908 791.28C554.908 814.064 537.372 833.136 511.132 833.136Z" fill="#42FD72"/>
</g>
<defs>
<linearGradient id="paint0_linear_6_282" x1="512" y1="0" x2="512" y2="1024" gradientUnits="userSpaceOnUse">
<stop stop-color="white"/>
<stop offset="1" stop-opacity="0"/>
</linearGradient>
<clipPath id="clip0_6_282">
<rect width="1024" height="1024" fill="white"/>
</clipPath>
</defs>
</svg>
