<svg width="1200" height="235" viewBox="0 0 1200 235" fill="none" xmlns="http://www.w3.org/2000/svg">
<path fill-rule="evenodd" clip-rule="evenodd" d="M1051.97 119.443C1051.97 154.705 1069.35 185 1106.1 185C1137.39 185 1148.57 169.107 1155.02 152.718H1165.7L1157.5 176.557V182.517H1199.97V0H1157.5V62.8255L1165.7 86.4161H1155.02C1148.57 70.2752 1137.39 54.3825 1106.1 54.3825C1069.35 54.3825 1051.97 84.4295 1051.97 119.443ZM1126.22 147.503C1105.36 147.503 1094.43 139.06 1094.43 119.443C1094.43 100.074 1105.36 91.8792 1126.22 91.8792C1147.08 91.8792 1157.5 100.074 1157.5 119.443C1157.5 139.309 1147.08 147.503 1126.22 147.503ZM836 57.0149C796.894 57.0149 768 81.3495 768 121.015C768 159.464 793.407 185.015 836 185.015C874.857 185.015 900.513 166.277 904 139.023H861.656C859.165 148.513 856.58 155.015 836 155.015C814.388 155.015 813.522 145.562 812.248 131.667C812.169 130.8 812.088 129.916 812 129.015H904V119.015C904 80.3229 879.59 57.0149 836 57.0149ZM862 109.015H812C812.019 108.751 812.038 108.489 812.057 108.227C813.016 94.9899 813.739 85.0149 836 85.0149C858.057 85.0149 860.755 95.3875 862 109.015ZM910 121.015C910 81.3495 938.894 57.0149 978 57.0149C1021.59 57.0149 1046 80.3229 1046 119.015V129.015H954C954.052 129.552 954.102 130.083 954.151 130.608C954.184 130.964 954.216 131.317 954.248 131.667C955.522 145.562 956.388 155.015 978 155.015C998.58 155.015 1001.16 148.513 1003.66 139.023H1046C1042.51 166.277 1016.86 185.015 978 185.015C935.407 185.015 910 159.464 910 121.015ZM954 109.015H1004C1002.75 95.3875 1000.06 85.0149 978 85.0149C955.739 85.0149 955.016 94.9899 954.057 108.227L954 109.015ZM617.191 56.0206V234.531H659.654V176.023L651.707 152.122H662.137C668.593 168.554 679.768 184.488 711.305 184.488C747.808 184.488 765.191 154.363 765.191 119.01C765.191 83.9051 747.808 53.5309 711.305 53.5309C679.768 53.5309 668.593 69.4649 662.137 85.6478H651.707L659.654 61.9958V56.0206H617.191ZM690.942 146.894C670.083 146.894 659.654 138.927 659.654 119.01C659.654 99.3411 670.083 91.1251 690.942 91.1251C712.05 91.1251 722.728 99.3411 722.728 119.01C722.728 138.927 712.05 146.894 690.942 146.894ZM607.774 129.863C607.774 163.134 584.911 184.984 528.499 184.984C466.619 184.984 440.774 158.665 440.774 113.227H487.494C487.494 138.056 497.186 147.243 529.493 147.243C551.61 147.243 561.302 142.774 561.302 131.849C561.302 125.642 556.332 120.924 546.392 118.441L487.743 103.047C457.424 94.853 447.981 77.2241 447.981 55.1259C447.981 21.1095 473.329 2.98401 519.304 2.98401C573.977 2.98401 601.064 28.8067 601.064 66.7957H554.593C554.593 47.9253 543.907 39.9799 520.049 39.9799C503.399 39.9799 494.701 44.2009 494.701 54.1327C494.701 59.0986 497.435 63.3196 508.369 66.2991L565.279 80.452C594.354 87.6525 607.774 104.288 607.774 129.863ZM366 57.0149C326.894 57.0149 298 81.3495 298 121.015C298 159.464 323.407 185.015 366 185.015C404.857 185.015 430.513 166.277 434 139.023H391.656C389.165 148.513 386.58 155.015 366 155.015C344.388 155.015 343.522 145.562 342.248 131.667C342.169 130.8 342.088 129.916 342 129.015H434V119.015C434 80.3229 409.59 57.0149 366 57.0149ZM392 109.015H342C342.015 108.815 342.029 108.615 342.044 108.416L342.057 108.23L342.057 108.227C343.016 94.9899 343.739 85.0149 366 85.0149C388.057 85.0149 390.755 95.3875 392 109.015ZM290 59.0149V209.015C290 223.168 279.832 233.015 266 233.015H160V195.015H245.998L246 167.015L254 145.015H244C239.06 166.605 223.521 184.797 196.845 184.797C164.488 184.797 144 161.397 144 123.015V59.0149H188V117.015C188 138.845 193.228 149.015 212 149.015C232.501 149.015 246 137.319 246 103.015V59.0149H290ZM68 57.0149C28.8938 57.0149 0 81.3495 0 121.015C0 159.464 25.4066 185.015 68 185.015C106.857 185.015 132.513 166.277 136 139.023H93.6557C91.1648 148.513 88.5803 155.015 68 155.015C46.3881 155.015 45.5218 145.562 44.2484 131.667C44.1689 130.8 44.0878 129.916 44 129.015H136V119.015C136 80.3229 111.59 57.0149 68 57.0149ZM94 109.015H44C44.0193 108.751 44.0383 108.489 44.0572 108.227C45.0165 94.9899 45.7393 85.0149 68 85.0149C90.0573 85.0149 92.7546 95.3875 94 109.015Z" fill="#42FD72"/>
</svg>
